<svg xmlns="http://www.w3.org/2000/svg" viewBox="0 0 64 64">
  <defs>
    <linearGradient id="g" x1="0" y1="0" x2="1" y2="1">
      <stop offset="0%" stop-color="#f97316"/>
      <stop offset="100%" stop-color="#ea580c"/>
    </linearGradient>
  </defs>
  <rect width="64" height="64" rx="14" fill="url(#g)"/>
  <g fill="none" stroke="#fff" stroke-width="2.5" stroke-linecap="round" stroke-linejoin="round" transform="translate(20 20) scale(1)">
    <path d="M2 7c0-1.1.9-2 2-2h16a2 2 0 0 1 2 2v2a3 3 0 0 1-3 3 3 3 0 0 1-3-3 3 3 0 0 1-3 3 3 3 0 0 1-3-3 3 3 0 0 1-3 3 3 3 0 0 1-3-3V7Z"/>
    <path d="M4 12v8a2 2 0 0 0 2 2h12a2 2 0 0 0 2-2v-8"/>
    <path d="M15 22v-4a2 2 0 0 0-2-2h-2a2 2 0 0 0-2 2v4"/>
  </g>
</svg>
